<svg width="1244" height="1244" viewBox="0 0 1244 1244" fill="none" xmlns="http://www.w3.org/2000/svg">
<path d="M932.435 0H310.812C139.155 0 0 139.155 0 310.812V932.435C0 1104.09 139.155 1243.25 310.812 1243.25H932.435C1104.09 1243.25 1243.25 1104.09 1243.25 932.435V310.812C1243.25 139.155 1104.09 0 932.435 0Z" fill="#155EEF"/>
<path d="M932.434 25.9009H310.811C153.459 25.9009 25.9004 153.46 25.9004 310.811V932.434C25.9004 1089.79 153.459 1217.34 310.811 1217.34H932.434C1089.79 1217.34 1217.34 1089.79 1217.34 932.434V310.811C1217.34 153.46 1089.79 25.9009 932.434 25.9009Z" stroke="url(#paint0_linear_1103_98)" stroke-width="34"/>
<path fill-rule="evenodd" clip-rule="evenodd" d="M750.957 530.588L675.446 455.078C629.493 409.126 554.991 409.126 509.038 455.078C493.884 470.233 483.726 488.493 478.568 507.81L425.836 455.078C379.883 409.126 305.38 409.126 259.429 455.078C213.476 501.03 213.476 575.533 259.429 621.484L425.836 787.892C471.787 833.843 546.291 833.843 592.242 787.892C607.398 772.736 617.554 754.475 622.712 735.158L675.446 787.892C721.397 833.843 795.9 833.843 841.853 787.89L978.791 650.952C1031.44 598.299 1031.44 512.932 978.791 460.277C926.138 407.624 840.77 407.624 788.117 460.277C768.185 480.209 755.797 504.83 750.957 530.588ZM717.047 746.289C740.024 769.266 777.275 769.266 800.251 746.289C823.216 723.323 823.226 686.095 800.279 663.115L633.843 496.679C610.868 473.704 573.616 473.704 550.641 496.679C527.676 519.644 527.664 556.867 550.604 579.846L717.047 746.289ZM829.718 609.351L883.454 663.087L937.19 609.351C966.867 579.673 966.867 531.557 937.19 501.88C907.512 472.202 859.396 472.202 829.718 501.88C800.041 531.557 800.041 579.673 829.718 609.351ZM550.689 663.135C573.616 686.114 573.601 723.329 550.641 746.289C527.664 769.266 490.413 769.266 467.437 746.289L301.03 579.883C278.054 556.906 278.054 519.655 301.03 496.679C324.007 473.704 361.258 473.704 384.233 496.679L550.689 663.135Z" fill="white"/>
<defs>
<linearGradient id="paint0_linear_1103_98" x1="621.622" y1="-8.092e-05" x2="621.622" y2="1243.25" gradientUnits="userSpaceOnUse">
<stop stop-color="white" stop-opacity="0.12"/>
<stop offset="1" stop-color="white" stop-opacity="0"/>
</linearGradient>
</defs>
</svg>
