<svg width="492" height="492" viewBox="0 0 492 492" fill="none" xmlns="http://www.w3.org/2000/svg">
<rect width="492" height="492" rx="100" fill="#42A5F5"/>
<path d="M164.041 311.524H137.815C137.181 311.524 136.829 311.218 136.758 310.605L111.167 181.211C111.026 180.721 111.238 180.476 111.802 180.476H136.124C136.688 180.476 137.04 180.721 137.181 181.211L151.034 266.278L165.31 181.211C165.451 180.721 165.874 180.476 166.579 180.476H186.142C186.706 180.476 187.058 180.721 187.199 181.211L201.264 266.278L215.328 181.211C215.469 180.721 215.821 180.476 216.385 180.476H240.496C241.201 180.476 241.483 180.721 241.342 181.211L215.539 310.605C215.469 310.85 215.257 311.065 214.905 311.249L214.482 311.524H188.257C187.834 311.524 187.481 311.218 187.199 310.605L176.096 243.011L165.098 310.605C165.028 311.218 164.675 311.524 164.041 311.524Z" fill="white"/>
<path d="M305.39 311.524H235.386C234.822 311.524 234.54 311.218 234.54 310.605L234.751 181.211C234.751 180.721 235.033 180.476 235.597 180.476H305.179C305.743 180.476 306.025 180.782 306.025 181.395V202.455C306.025 202.945 305.743 203.191 305.179 203.191H260.765V232.619H305.179C305.743 232.619 306.025 232.864 306.025 233.355L306.236 254.691C306.236 255.181 305.954 255.426 305.39 255.426H260.765V288.349H305.39C305.954 288.349 306.236 288.656 306.236 289.269V310.789C306.236 311.279 305.954 311.524 305.39 311.524Z" fill="white"/>
<path d="M323.651 311.524H299.329C298.835 311.524 298.624 311.218 298.694 310.605L323.439 243.379L299.117 181.211C298.976 180.721 299.188 180.476 299.752 180.476H324.074C324.779 180.476 325.202 180.721 325.343 181.211L339.83 225.998L354.529 181.211C354.67 180.721 355.128 180.476 355.903 180.476H379.908C380.472 180.476 380.683 180.721 380.542 181.211L356.326 243.195L380.754 310.605C381.036 311.218 380.824 311.524 380.119 311.524H355.903C355.269 311.524 354.811 311.218 354.529 310.605L339.83 261.956L324.92 310.605C324.849 311.218 324.426 311.524 323.651 311.524Z" fill="white"/>
</svg>
